<?xml version="1.0" encoding="UTF-8"?>
<svg version="1.1" viewBox="0 0 2000 2000" width="500" height="500" xmlns="http://www.w3.org/2000/svg">
<path transform="translate(681,690)" d="m0 0 6 1 27 15 17 10 27 15 24 14 27 15 49 28 27 15 24 14 43 24v3l-15 9-5 1-14-7-24-14-25-14-49-28-25-14-21-12-16-9-26-15-36-20-11-7-5 1-26 15-13 8-26 15-15 9-90 53-20 12-29 17-24 14-1 1v95l1 117 1 75 9 6 26 14 49 28 25 14 24 14 22 12 16 9 28 16 24 14 11 6 12 7 5 1 13-8 29-17 24-14 26-15 15-9 87-51 27-16 24-14 5 1 16 8v3l-25 15-51 30-29 17-27 16-90 53-17 10-25 15h-6l-27-15-21-12-25-14-28-16-25-14-21-12-25-14-49-28-25-14-19-11-3-3-1-50-2-231v-29l5-4 53-31 27-16 29-17 27-16 75-44 27-16 19-11z" fill="#0103B7"/>
<path transform="translate(588,917)" d="m0 0 7 1 4 8 3 17 2 17 16 2h11l2-5 6-6 4-1h36l1 1 1 70 3 5 2 1h7l4-1 1-4 1-71 3-1h33l6 2 5 4 3 7 20-2 6-2 5-33 3-6 4-3 6 1 5 5v8l-6 35-3 9-13 3-25 3-1 23 26 3 15 2 4 4 13 26 9 19-1 6-6 4-6-1-4-5-18-36v-2h-12l-21-3-1 15-2 16 16 12 5 4 3 8 8 37-1 7-5 3h-6l-4-3-4-15-4-20-3-8-14-10-4 1-8 8-14 7-17 4h-9l-17-4-10-5-10-8-3-3-5 2-12 8-2 3-6 31-3 9-3 3-9-1-3-3v-10l8-36 4-6 8-7 10-7 1-1-1-9-1-6-1-16-22 3-11 1-13 28-7 12-3 3-7-1-4-4 1-9 8-16 9-19 6-9 1-1 41-6 1-21-11-2-24-3-5-3-4-13-5-34 1-5 4-4z" fill="#0103B7"/>
<path transform="translate(681,724)" d="m0 0 6 1 25 14 24 14 24 13 49 28 25 14 24 14 18 10 46 26 1 2-4 4-6-2-22-12-21-12-23-13-28-16-27-15-24-14-22-12-24-14-29-16-9-5-6 2-26 15-39 23-100 59-26 15-10 6-17 10-7 4v93l1 177 23 13 29 16 42 24 50 28 24 14 22 12 35 20 8 4 5-2 18-10 13-8 53-31 22-13 100-59 21-12 5 2v4l-34 20-70 41-24 14-15 9-34 20-46 27-12 7-5-1-27-15-42-24-18-10-28-16-25-14-21-12-23-13-43-24-10-6-1-2-2-249v-26l5-5 15-8 15-9 73-43 24-14 25-15 26-15 27-16 22-13z" fill="#0204B7"/>
<path transform="translate(903,944)" d="m0 0h85l5 5v2l4 2 1 4v25l-1 7-7 6 1 6 6 6 1 3v26l-2 6-7 8-5 1h-80l-1-1zm21 21-1 15 1 7h52l1-21-1-1zm0 43v21h52l1-8v-12l-2-1z" fill="#0103B7"/>
<path transform="translate(1563,944)" d="m0 0h19l1 1 1 63 9 12 5 6h3l10-13 3-6 1-63h20l1 1 1 63 12 16 1 3 4-1 12-16 1-2 1-63 1-1h19l1 1v73l-4 6-11 14-11 12-17 1-7-3-12-13v-2l-5 3-10 13-5 2h-17l-8-7-14-17-6-8v-74z" fill="#0103B7"/>
<path transform="translate(1134,944)" d="m0 0h75l4 4 5 6 1 13-1 8-7 1h-11l-2-1-1-9-52-1v64h52v-17h-25l-1-1-1-10v-9l1-1 41-1 7 2v43l-1 7-8 8-11 1h-63l-4-1-7-8-1-1v-86l8-10z" fill="#0103B7"/>
<path transform="translate(1343,944)" d="m0 0h85l8 8 2 6v34l-1 17-8 7 2 6 5 4 2 10-1 14-1 1h-18l-2-4-2-9-10-10-6-7-4-2h-30v30l-1 1h-20l-1-57v-48zm21 21-1 11 1 21h52v-32z" fill="#0103B7"/>
<path transform="translate(1463,944)" d="m0 0h75l5 6 5 5v83l-2 5-7 7-36 1h-37l-5-1-8-10v-84l3-5 5-6zm11 21v64h53l-1-64z" fill="#0103B7"/>
<path transform="translate(1703,944)" d="m0 0h63l8 7 2 4 4 2 8 8 7 8 2 3v65l-7 8-2 1-26 1h-58l-1-1-1-12v-63zm21 21-1 1v55l1 8h52v-42l-8-10-10-10-4-2z" fill="#0103B7"/>
<path transform="translate(1244,944)" d="m0 0h74l8 7 2 3 1 5v15l-1 1h-20l-1-2v-8l-51 1-1 63h46l6 1v-10l1-1h20l1 1v19l-2 4-7 7-41 1h-33l-4-1-7-8-1-1v-85l3-5 5-6z" fill="#0103B7"/>
<path transform="translate(1013,944)" d="m0 0h20l1 1v84h53v-85h15l6 1v94l-3 5-4 5-2 1-44 1h-31l-3-1-7-8-1-3z" fill="#0103B7"/>
<path transform="translate(645,863)" d="m0 0h9l12 6 7 8 4 9 1 4h23l3-10 8-10 10-6 4-1h8l3 2v8l-2 2-9 3-6 4-4 7-1 9 9 14 3 10v10h-74l1-16 4-9 7-9-1-8-5-8-6-4-10-4-2-2 1-6z" fill="#0103B7"/>
</svg>
