<?xml version="1.0" encoding="UTF-8"?>
<svg version="1.1" viewBox="0 0 2048 446" width="463" height="101" xmlns="http://www.w3.org/2000/svg">
<path transform="translate(163,95)" d="m0 0h35l17 4 13 5 16 9 14 12 10 11 7 10 9 17 5 15 2 10 1 10v12l-2 17-4 15-6 14-10 15-12 14-7 7-7 10-6 13-3 14-1 53-3 10-7 8-5 3-9 4-4 8-8 8-9 4-10 1-10-2-9-7-6-9-2-4-12-4-8-9-3-8-1-38-1-19-3-14-8-16-9-11-8-8-10-13-9-16-7-21-3-18v-11l2-16 5-18 8-16 9-13 11-12 7-7 13-9 16-8 17-5zm17 13-21 2-15 5-14 7-10 8-8 7-8 10-9 14-7 16-3 13v27l5 20 9 19 11 14 11 12 9 13 6 13 4 13 2 9 1 1h16l1-23v-66l-16-2-8-4-5-7-2-6v-8l5-10 6-5 6-2h11l8 4 5 6 2 6 1 12 1 2 13 1 1-2 2-13 4-8 7-6 5-2h12l8 4 6 8 1 4v11l-4 8-6 5-4 2-17 2v88h19l4-18 5-12 6-10 9-11 10-11 9-13 7-14 4-13 2-12v-26l-3-14-5-12-7-13-7-9-8-9-12-9-17-9-15-5-6-1zm-32 102-5 3-1 2v8l4 4 3 1h10v-13l-3-4zm58 1-3 4-1 3v8l2 2h9l6-3 1-2v-7l-4-5zm-32 30-1 6v83l15 1 1-2v-87l-7-1zm-33 103v7h79l1-7zm1 21v6l1 1h77l1-1v-5l-1-1zm2 20 3 5 4 2h58l9-3 2-3-1-1zm23 21 2 4 9 5 9-1 6-4 2-4z" fill="#fff"/>
<path transform="translate(909,163)" d="m0 0h45l6 9 15 36 11 28h2l14-34 11-26 7-12 1-1h44l2 3v111l-1 1-10 1h-24l-3-5-1-52-18 45-6 11-4 1h-27l-5-4-9-20-11-29-2-3-1 54-6 2h-29l-2-2-1-6v-101z" fill="#fff"/>
<path transform="translate(1184,163)" d="m0 0h35l6 5 10 14 8 12 13 18 7 11 2 3 1-46 2-16 1-1h30l5 2 1 31v68l-1 13-1 1-7 1h-30l-5-5-8-10-10-15-16-23-7-10-1-1v41l-1 21-1 1-7 1h-26l-3-3v-107l2-5z" fill="#fff"/>
<path transform="translate(1386,160)" d="m0 0h10l18 2 14 5 11 7 9 9 5 8 5 15 1 6v16l-3 15-6 12-8 10-9 7-13 6-13 3-10 1h-14l-16-2-14-5-11-7-8-8-7-12-4-12-1-5v-18l4-16 6-12 9-10 11-7 11-5 9-2zm-3 28-10 4-7 8-4 11-1 14 3 12 5 9 9 6 9 3h7l11-4 6-4 6-9 2-7v-21l-4-10-5-6-6-4-7-2z" fill="#fff"/>
<path transform="translate(1604,163)" d="m0 0h106l3 3v23l-2 2-12 1h-61v14h52l4 1 1 2v25l-4 1h-53v15h69l5 2 1 2v23l-1 1-8 1h-101l-3-3-1-52v-51l2-9z" fill="#fff"/>
<path transform="translate(1874,163)" d="m0 0h35l1 1v43h45v-15l1-28 1-1h35l2 4v59l-1 52-14 1h-21l-2-3v-40h-45l-1 41-1 1-17 1h-17l-2-1-1-3v-108z" fill="#fff"/>
<path transform="translate(762,163)" d="m0 0h35l2 5 1 68 3 9 8 6 8 3h8l10-4 5-4 3-8 1-52 1-19 2-4h34l1 1 1 8v57l-1 13-4 12-6 10-9 8-13 6-13 3-10 1h-15l-15-2-13-5-9-6-5-5-6-8-4-11-1-6v-71z" fill="#fff"/>
<path transform="translate(1789,160)" d="m0 0 22 1 12 3 14 7 10 9 5 8 2 6v9l-3 3-3 1h-26l-5-5-8-9-9-4h-14l-8 3-5 4-5 9-2 6-1 13 2 11 5 10 9 6 9 3h8l12-6 9-10 3-4h28l5 2 1 7-3 10-7 11-9 7-12 6-17 4-11 1h-10l-17-2-14-5-12-8-9-10-7-14-3-16v-12l3-15 4-10 8-11 11-9 15-7 9-2z" fill="#fff"/>
<path transform="translate(1086,163)" d="m0 0h77l1 2 1 9v10l-2 6-2 1-17 1-1 58h9l11 1 1 1 1 7v12l-1 7-6 1h-71l-2-2-1-4v-17l2-5 4-1h15v-59l-12 1-7-1-2-3v-18z" fill="#fff"/>
<path transform="translate(1471,163)" d="m0 0h114l2 4 1 13-1 10-2 1h-38l-1 86-1 1-14 1h-20l-2-1-1-4v-83l-33 1-6-2-1-16 1-9z" fill="#fff"/>
<path transform="translate(644,163)" d="m0 0h36l1 2v85h61l6 2v25l-1 1-9 1h-91l-3-1-1-2v-111z" fill="#fff"/>
<path transform="translate(531,30)" d="m0 0h8l2 2v382l-1 13h-10l-3-1-1-2v-391l1-2z" fill="#fff"/>
<path transform="translate(320,247)" d="m0 0 10 1 20 6 10 4 2 2v7l-3 4h-7l-32-11-3-5z" fill="#fff"/>
<path transform="translate(180,15)" d="m0 0 5 1 3 3v40l-1 2-6 1-6-2-1-2-1-25 1-14z" fill="#fff"/>
<path transform="translate(287,51)" d="m0 0 9 2 1 4-6 12-12 16-7 7-4-1-5-5 1-5 10-15 9-13z" fill="#fff"/>
<path transform="translate(350,144)" d="m0 0h9l4 3v5l-7 6-28 9h-7l-3-5v-5l5-4z" fill="#fff"/>
<path transform="translate(266,322)" d="m0 0 6 1 8 9 9 12 6 10-2 5-4 3-5-1-5-5-13-17-5-8 1-5z" fill="#fff"/>
<path transform="translate(71,49)" d="m0 0 4 1 5 5 10 12 8 11 1 5-3 5-5 2-6-4-10-13-8-13-1-5 2-4z" fill="#fff"/>
<path transform="translate(3,141)" d="m0 0 9 1 23 8 8 5-1 6-5 5-24-7-12-5-1-1v-9z" fill="#fff"/>
<path transform="translate(86,322)" d="m0 0h7l4 2v6l-7 11-8 11-8 9-6-1-4-4 1-5 8-12 10-14z" fill="#fff"/>
<path transform="translate(32,245)" d="m0 0h6l3 4 1 5-5 5-27 9-7 1-3-2v-11l19-7z" fill="#fff"/>
</svg>
